<svg width="24" height="24" viewBox="0 0 24 24" fill="none" xmlns="http://www.w3.org/2000/svg">
<path d="M20.216 6.41496L20.084 5.74896C19.965 5.15096 19.696 4.58596 19.083 4.36996C18.886 4.30096 18.663 4.27196 18.513 4.12896C18.361 3.98596 18.317 3.76296 18.282 3.55696C18.217 3.17896 18.157 2.80096 18.09 2.42396C18.033 2.09896 17.988 1.73396 17.84 1.43696C17.645 1.03696 17.243 0.802961 16.844 0.648961C16.6392 0.57239 16.4302 0.507617 16.218 0.454961C15.218 0.191961 14.168 0.0949609 13.141 0.0389609C11.9078 -0.0288453 10.6713 -0.00812547 9.44099 0.100961C8.52599 0.183961 7.56099 0.284961 6.69099 0.600961C6.37299 0.716961 6.04499 0.856961 5.80299 1.10196C5.50599 1.40396 5.40999 1.87196 5.62599 2.24796C5.77999 2.51496 6.04099 2.70396 6.31799 2.82796C6.67799 2.98996 7.05499 3.11196 7.44099 3.19396C8.51599 3.43196 9.62999 3.52496 10.728 3.56396C11.946 3.61396 13.165 3.57396 14.378 3.44596C14.677 3.41296 14.976 3.37296 15.274 3.32696C15.626 3.27296 15.852 2.81396 15.748 2.49296C15.624 2.10996 15.291 1.96196 14.914 2.01996C14.448 2.09396 13.954 2.12796 13.532 2.16596C12.355 2.24596 11.174 2.24796 9.99599 2.17196C9.60946 2.14638 9.22366 2.1107 8.83899 2.06496C8.75299 2.05496 8.65899 2.03996 8.58099 2.02896C8.33799 1.99296 8.09699 1.94896 7.85699 1.89896C7.74599 1.87196 7.74599 1.71396 7.85699 1.68696H7.86199C8.13899 1.62696 8.41899 1.57896 8.69999 1.53996H8.70199C8.83299 1.53096 8.96499 1.50796 9.09599 1.49196C10.2339 1.37386 11.3786 1.33376 12.522 1.37196C13.196 1.39096 13.869 1.43896 14.539 1.51596L14.767 1.54696C15.034 1.58696 15.3 1.63496 15.565 1.69196C15.957 1.77696 16.46 1.80496 16.635 2.23396C16.69 2.37096 16.715 2.52196 16.746 2.66496L17.065 4.14896C17.0718 4.18078 17.0719 4.21365 17.0654 4.24553C17.0589 4.27741 17.0459 4.30761 17.0273 4.33425C17.0086 4.36089 16.9846 4.3834 16.9569 4.40038C16.9292 4.41737 16.8982 4.42846 16.866 4.43296H16.863C16.826 4.43896 16.788 4.44296 16.751 4.44796C15.178 4.64865 13.5937 4.74719 12.008 4.74296C10.4368 4.74134 8.8673 4.6398 7.30899 4.43896C7.16899 4.42196 7.01599 4.39696 6.89199 4.37896C6.56599 4.33096 6.24299 4.27096 5.91899 4.21796C5.52599 4.15296 5.15099 4.18596 4.79599 4.37896C4.50599 4.53896 4.26899 4.78296 4.12099 5.07996C3.96699 5.39596 3.92199 5.73996 3.85399 6.07996C3.78499 6.41996 3.67799 6.78696 3.71899 7.13596C3.80599 7.88896 4.33199 8.50096 5.08899 8.63796C8.83246 9.30602 12.6525 9.43265 16.432 9.01396C16.5038 9.00579 16.5765 9.01384 16.6448 9.03751C16.7131 9.06118 16.7752 9.09987 16.8265 9.15073C16.8779 9.20159 16.9171 9.26333 16.9414 9.33138C16.9658 9.39944 16.9745 9.47208 16.967 9.54396L16.896 10.241L15.878 20.148C15.837 20.558 15.831 20.98 15.753 21.385C15.631 22.022 15.2 22.413 14.571 22.556C13.994 22.687 13.406 22.756 12.815 22.761C12.159 22.765 11.505 22.736 10.849 22.739C10.15 22.743 9.29299 22.679 8.75399 22.159C8.27899 21.701 8.21399 20.985 8.14899 20.366L7.41799 13.353L7.09599 10.259C7.05899 9.90796 6.80999 9.56396 6.41799 9.58096C6.08199 9.59596 5.69999 9.88096 5.73999 10.26L5.96799 12.445L6.91699 21.557C7.06399 22.901 8.09099 23.625 9.36299 23.829C10.105 23.949 10.866 23.973 11.62 23.985C12.586 24.001 13.562 24.038 14.512 23.863C15.92 23.605 16.977 22.665 17.128 21.206C17.468 17.874 17.811 14.543 18.152 11.211L18.367 9.12396C18.3776 9.02047 18.4212 8.92314 18.4915 8.84641C18.5617 8.76968 18.6548 8.71762 18.757 8.69796C19.159 8.61996 19.544 8.48596 19.831 8.17996C20.286 7.69196 20.377 7.05696 20.216 6.41496ZM18.738 7.18696C18.593 7.32396 18.375 7.38796 18.16 7.41996C15.744 7.77896 13.294 7.95996 10.852 7.87996C9.10399 7.81996 7.37499 7.62596 5.64499 7.38196C5.47499 7.35796 5.29199 7.32696 5.17499 7.20196C4.95499 6.96596 5.06399 6.49196 5.12099 6.20696C5.17299 5.94696 5.27299 5.59796 5.58399 5.56096C6.06799 5.50396 6.62999 5.70896 7.10999 5.78096C7.68699 5.86896 8.26599 5.93996 8.84699 5.99296C11.327 6.21896 13.849 6.18296 16.319 5.85296C16.769 5.79296 17.218 5.72296 17.664 5.64296C18.063 5.57096 18.504 5.43696 18.744 5.84896C18.91 6.12996 18.932 6.50596 18.906 6.82296C18.8981 6.9614 18.8377 7.0916 18.737 7.18696H18.738Z" fill="#FFFFFE"/>
<path d="M9.47012 11.8751C10.7391 11.8751 11.7171 11.4571 12.5791 11.0871C13.3481 10.7581 14.0131 10.4741 14.8391 10.4741C15.2901 10.4783 15.737 10.5588 16.1611 10.7121L15.2211 20.6621C15.1561 21.4421 14.5051 22.0421 13.7221 22.0421C13.7221 22.0421 12.3831 22.1071 11.9361 22.1071C11.5211 22.1071 10.2781 22.0421 10.2781 22.0421C9.49512 22.0421 8.84312 21.4421 8.77812 20.6621L7.90112 11.6581C8.41195 11.8008 8.93973 11.8738 9.47012 11.8751Z" fill="#FFDD00"/>
</svg>
