<svg width="33" height="37" viewBox="0 0 33 37" fill="none" xmlns="http://www.w3.org/2000/svg">
<path d="M16.4798 37L3.00326 33.3013L0 0H33L29.9936 33.2962L16.4798 37V37Z" fill="#264DE4"/>
<path d="M27.4198 31.1759L29.9889 2.72278H16.5V34.1688L27.4198 31.1759V31.1759Z" fill="#2965F1"/>
<path d="M6.8848 15.0738L7.25502 19.1581H16.5V15.0738H6.8848ZM6.14075 6.80719L6.51627 10.8915H16.5V6.80719H6.14075V6.80719ZM16.5 25.6811L16.4819 25.6859L11.8809 24.4577L11.5868 21.2003H7.43961L8.01835 27.6132L16.4809 29.9356L16.5 29.9305V25.6811Z" fill="#EBEBEB"/>
<path d="M26.0887 15.0738L26.8345 6.80719H16.4857V10.8915H22.307L21.9311 15.0738H16.4857V19.1581H21.5729L21.0933 24.4551L16.4856 25.6846V29.9337L24.9549 27.6132L25.017 26.9231L25.988 16.1706L26.0887 15.0738V15.0738Z" fill="white"/>
</svg>
