<svg width="60" height="60" viewBox="0 0 60 60" fill="none" xmlns="http://www.w3.org/2000/svg">
<rect width="60" height="60" rx="7.45763" fill="#FFFFFE"/>
<path d="M15.0002 36.1433L18.3667 34.0646C19.0162 35.2395 19.607 36.2336 21.0243 36.2336C22.3827 36.2336 23.2394 35.6915 23.2394 33.5827V19.2413H27.3735V33.6423C27.3735 38.0109 24.8635 39.9995 21.2014 39.9995C17.8942 39.9995 15.9745 38.252 15 36.143L15.0002 36.1433ZM29.619 35.6913L32.9851 33.7029C33.8714 35.1794 35.0231 36.2639 37.0605 36.2639C38.7736 36.2639 39.8659 35.3901 39.8659 34.1849C39.8659 32.7388 38.7437 32.2265 36.8538 31.3832L35.8204 30.9308C32.8377 29.6357 30.8592 28.0087 30.8592 24.574C30.8592 21.4104 33.2216 19 36.913 19C39.5413 19 41.4312 19.9341 42.7895 22.3745L39.5705 24.4837C38.8616 23.1882 38.0941 22.6761 36.9129 22.6761C35.702 22.6761 34.9342 23.4594 34.9342 24.4837C34.9342 25.749 35.702 26.2615 37.4738 27.0449L38.5073 27.4967C42.0215 29.0335 44 30.6 44 34.1248C44 37.9213 41.0765 40 37.149 40C33.3101 40 30.8295 38.1321 29.6188 35.6915" fill="#2B2C34"/>
</svg>
