<svg width="161" height="46" viewBox="0 0 161 46" fill="none" xmlns="http://www.w3.org/2000/svg">
<path d="M12.3398 29.1289H4.35938L2.70703 35H0.351562L7.73438 9.79297H8.92969L16.3477 35H14.0098L12.3398 29.1289ZM4.97461 26.9668H11.7422L8.41992 15.3477L8.34961 14.416L8.2793 15.3477L4.97461 26.9668ZM34.0137 35H32.8359L28.6172 21.4297L28.5469 20.498L28.4766 21.4297L24.2578 35H23.0625L17.0508 17H19.248L23.5371 30.6055L23.6074 31.5371L23.6777 30.6055L27.8965 17H29.1973L33.3984 30.6055L33.4688 31.5371L33.5391 30.6055L37.8281 17H40.0254L34.0137 35ZM54.5801 30.0605C54.5801 30.7871 54.4395 31.4727 54.1582 32.1172C53.8887 32.7617 53.5137 33.3242 53.0332 33.8047C52.5527 34.2852 51.9902 34.666 51.3457 34.9473C50.7012 35.2168 50.0156 35.3516 49.2891 35.3516H47.8477C47.1211 35.3516 46.4355 35.2168 45.791 34.9473C45.1465 34.666 44.584 34.2852 44.1035 33.8047C43.623 33.3242 43.2422 32.7617 42.9609 32.1172C42.6914 31.4727 42.5566 30.7871 42.5566 30.0605V21.9395C42.5566 21.2129 42.6914 20.5273 42.9609 19.8828C43.2422 19.2383 43.623 18.6758 44.1035 18.1953C44.584 17.7148 45.1465 17.3398 45.791 17.0703C46.4355 16.7891 47.1211 16.6484 47.8477 16.6484H49.2891C50.0156 16.6484 50.7012 16.7891 51.3457 17.0703C51.9902 17.3398 52.5527 17.7148 53.0332 18.1953C53.5137 18.6758 53.8887 19.2383 54.1582 19.8828C54.4395 20.5273 54.5801 21.2129 54.5801 21.9395V26.1758H44.7188V30.1836C44.7188 30.6172 44.8008 31.0273 44.9648 31.4141C45.1289 31.7891 45.3516 32.1172 45.6328 32.3984C45.9141 32.6797 46.2422 32.9023 46.6172 33.0664C47.0039 33.2305 47.4141 33.3125 47.8477 33.3125H49.2891C49.7227 33.3125 50.127 33.2305 50.502 33.0664C50.8887 32.9023 51.2227 32.6797 51.5039 32.3984C51.7852 32.1172 52.0078 31.7891 52.1719 31.4141C52.3359 31.0273 52.418 30.6172 52.418 30.1836V28.9883L54.5801 29.3398V30.0605ZM52.418 21.8164C52.418 21.3828 52.3359 20.9785 52.1719 20.6035C52.0078 20.2168 51.7852 19.8828 51.5039 19.6016C51.2227 19.3203 50.8887 19.0977 50.502 18.9336C50.127 18.7695 49.7227 18.6875 49.2891 18.6875H47.8477C47.4141 18.6875 47.0039 18.7695 46.6172 18.9336C46.2422 19.0977 45.9141 19.3203 45.6328 19.6016C45.3516 19.8828 45.1289 20.2168 44.9648 20.6035C44.8008 20.9785 44.7188 21.3828 44.7188 21.8164V24.4883H52.418V21.8164ZM71.2793 30.4297C71.2793 31.1562 71.1328 31.8242 70.8398 32.4336C70.5469 33.0312 70.1484 33.5469 69.6445 33.9805C69.1406 34.4141 68.5547 34.7539 67.8867 35C67.2305 35.2344 66.5391 35.3516 65.8125 35.3516H64.3711C63.6445 35.3516 62.9473 35.2168 62.2793 34.9473C61.623 34.666 61.043 34.2852 60.5391 33.8047C60.0469 33.3242 59.6484 32.7617 59.3438 32.1172C59.0508 31.4727 58.9043 30.7871 58.9043 30.0605V29.3398L61.0664 28.9883V30.1836C61.0664 30.6172 61.1543 31.0273 61.3301 31.4141C61.5176 31.7891 61.7637 32.1172 62.0684 32.3984C62.373 32.6797 62.7246 32.9023 63.123 33.0664C63.5215 33.2305 63.9375 33.3125 64.3711 33.3125H65.8125C66.2461 33.3125 66.6621 33.248 67.0605 33.1191C67.459 32.9902 67.8105 32.8086 68.1152 32.5742C68.4316 32.3281 68.6777 32.0352 68.8535 31.6953C69.041 31.3555 69.1348 30.9688 69.1348 30.5352C69.1348 29.8906 68.9941 29.3633 68.7129 28.9531C68.4316 28.543 68.0566 28.2031 67.5879 27.9336C67.1309 27.6523 66.6035 27.4238 66.0059 27.248C65.4199 27.0605 64.8164 26.8789 64.1953 26.7031C63.5742 26.5156 62.9648 26.3047 62.3672 26.0703C61.7812 25.8359 61.2539 25.5312 60.7852 25.1562C60.3281 24.7695 59.959 24.2891 59.6777 23.7148C59.3965 23.1406 59.2559 22.4258 59.2559 21.5703C59.2559 20.8438 59.3965 20.1816 59.6777 19.584C59.959 18.9746 60.3398 18.4531 60.8203 18.0195C61.3008 17.5859 61.8574 17.252 62.4902 17.0176C63.1348 16.7715 63.8203 16.6484 64.5469 16.6484H65.8125C66.5391 16.6484 67.2246 16.7891 67.8691 17.0703C68.5137 17.3398 69.0762 17.7148 69.5566 18.1953C70.0371 18.6758 70.4121 19.2383 70.6816 19.8828C70.9629 20.5273 71.1035 21.2129 71.1035 21.9395V22.0098L68.9414 22.3613V21.8164C68.9414 21.3828 68.8594 20.9785 68.6953 20.6035C68.5312 20.2168 68.3086 19.8828 68.0273 19.6016C67.7461 19.3203 67.4121 19.0977 67.0254 18.9336C66.6504 18.7695 66.2461 18.6875 65.8125 18.6875H64.5469C64.1133 18.6875 63.7031 18.752 63.3164 18.8809C62.9414 19.0098 62.6133 19.1973 62.332 19.4434C62.0508 19.6777 61.8281 19.9648 61.6641 20.3047C61.5 20.6445 61.418 21.0312 61.418 21.4648C61.418 22.0859 61.5586 22.5957 61.8398 22.9941C62.1211 23.3809 62.4902 23.709 62.9473 23.9785C63.416 24.248 63.9434 24.4766 64.5293 24.6641C65.127 24.8398 65.7305 25.0273 66.3398 25.2266C66.9609 25.4141 67.5645 25.6309 68.1504 25.877C68.748 26.123 69.2754 26.4395 69.7324 26.8262C70.2012 27.2129 70.5762 27.6992 70.8574 28.2852C71.1387 28.8594 71.2793 29.5742 71.2793 30.4297ZM87.4512 30.0605C87.4512 30.7871 87.3105 31.4727 87.0293 32.1172C86.7598 32.7617 86.3848 33.3242 85.9043 33.8047C85.4238 34.2852 84.8613 34.666 84.2168 34.9473C83.5723 35.2168 82.8867 35.3516 82.1602 35.3516H80.7188C79.9922 35.3516 79.3066 35.2168 78.6621 34.9473C78.0176 34.666 77.4551 34.2852 76.9746 33.8047C76.4941 33.3242 76.1133 32.7617 75.832 32.1172C75.5625 31.4727 75.4277 30.7871 75.4277 30.0605V21.9395C75.4277 21.2129 75.5625 20.5273 75.832 19.8828C76.1133 19.2383 76.4941 18.6758 76.9746 18.1953C77.4551 17.7148 78.0176 17.3398 78.6621 17.0703C79.3066 16.7891 79.9922 16.6484 80.7188 16.6484H82.1602C82.8867 16.6484 83.5723 16.7891 84.2168 17.0703C84.8613 17.3398 85.4238 17.7148 85.9043 18.1953C86.3848 18.6758 86.7598 19.2383 87.0293 19.8828C87.3105 20.5273 87.4512 21.2129 87.4512 21.9395V30.0605ZM85.2891 21.8164C85.2891 21.3828 85.207 20.9785 85.043 20.6035C84.8789 20.2168 84.6562 19.8828 84.375 19.6016C84.0938 19.3203 83.7598 19.0977 83.373 18.9336C82.998 18.7695 82.5938 18.6875 82.1602 18.6875H80.7188C80.2852 18.6875 79.875 18.7695 79.4883 18.9336C79.1133 19.0977 78.7852 19.3203 78.5039 19.6016C78.2227 19.8828 78 20.2168 77.8359 20.6035C77.6719 20.9785 77.5898 21.3828 77.5898 21.8164V30.1836C77.5898 30.6172 77.6719 31.0273 77.8359 31.4141C78 31.7891 78.2227 32.1172 78.5039 32.3984C78.7852 32.6797 79.1133 32.9023 79.4883 33.0664C79.875 33.2305 80.2852 33.3125 80.7188 33.3125H82.1602C82.5938 33.3125 82.998 33.2305 83.373 33.0664C83.7598 32.9023 84.0938 32.6797 84.375 32.3984C84.6562 32.1172 84.8789 31.7891 85.043 31.4141C85.207 31.0273 85.2891 30.6172 85.2891 30.1836V21.8164ZM97.9629 11.8496C97.5996 11.8496 97.2598 11.9199 96.9434 12.0605C96.6387 12.1895 96.3691 12.3711 96.1348 12.6055C95.9004 12.8398 95.7129 13.1152 95.5723 13.4316C95.4434 13.748 95.3789 14.0879 95.3789 14.4512V17H99.5801V19.0566H95.3789V35H93.2168V19.0566H89.9648V17H93.2168V14.5566C93.2168 13.9004 93.3398 13.2852 93.5859 12.7109C93.832 12.125 94.1719 11.6152 94.6055 11.1816C95.0391 10.748 95.543 10.4082 96.1172 10.1621C96.6914 9.91602 97.3066 9.79297 97.9629 9.79297H99.9492V11.8496H97.9629ZM108.668 35C108.012 35 107.391 34.877 106.805 34.6309C106.23 34.3848 105.727 34.0449 105.293 33.6113C104.871 33.1777 104.531 32.6738 104.273 32.0996C104.027 31.5254 103.904 30.9102 103.904 30.2539V19.0566H100.67V17H103.904V12.6758L106.066 12.3242V17H110.637V19.0566H106.066V30.3594C106.066 30.7227 106.131 31.0625 106.26 31.3789C106.4 31.6836 106.588 31.9531 106.822 32.1875C107.057 32.4219 107.332 32.6094 107.648 32.75C107.965 32.8789 108.305 32.9434 108.668 32.9434H110.637V35H108.668Z" fill="#001858"/>
<path d="M114.257 37V35.6465H115.61V37H114.257ZM125.401 33.9062C125.401 34.334 125.319 34.7354 125.155 35.1104C124.997 35.4854 124.777 35.8135 124.496 36.0947C124.215 36.376 123.884 36.5986 123.503 36.7627C123.128 36.9209 122.727 37 122.299 37H118.309V24.3965H122.299C122.727 24.3965 123.128 24.4785 123.503 24.6426C123.884 24.8008 124.215 25.0205 124.496 25.3018C124.777 25.583 124.997 25.9141 125.155 26.2949C125.319 26.6699 125.401 27.0713 125.401 27.499V27.6221C125.401 27.9209 125.36 28.208 125.278 28.4834C125.202 28.7529 125.091 29.0049 124.944 29.2393C124.798 29.4736 124.625 29.6875 124.426 29.8809C124.227 30.0684 124.004 30.2266 123.758 30.3555C124.004 30.4844 124.227 30.6455 124.426 30.8389C124.625 31.0264 124.798 31.2402 124.944 31.4805C125.091 31.7148 125.202 31.9697 125.278 32.2451C125.36 32.5146 125.401 32.7988 125.401 33.0977V33.9062ZM124.268 32.9131C124.268 32.6318 124.215 32.3711 124.109 32.1309C124.004 31.8848 123.857 31.6709 123.67 31.4893C123.488 31.3076 123.274 31.1641 123.028 31.0586C122.788 30.9531 122.527 30.9004 122.246 30.9004H119.442V35.9189H122.246C122.527 35.9189 122.788 35.8662 123.028 35.7607C123.274 35.6553 123.488 35.5117 123.67 35.3301C123.857 35.1484 124.004 34.9375 124.109 34.6973C124.215 34.4512 124.268 34.1875 124.268 33.9062V32.9131ZM124.268 27.499C124.268 27.2178 124.215 26.957 124.109 26.7168C124.004 26.4707 123.857 26.2568 123.67 26.0752C123.488 25.8877 123.274 25.7412 123.028 25.6357C122.788 25.5303 122.527 25.4775 122.246 25.4775H119.442V29.8193H122.246C122.527 29.8193 122.788 29.7666 123.028 29.6611C123.274 29.5557 123.488 29.4121 123.67 29.2305C123.857 29.043 124.004 28.8291 124.109 28.5889C124.215 28.3428 124.268 28.0791 124.268 27.7979V27.499ZM127.572 37V24.3965H128.653V37H127.572ZM137.021 34.5303C137.021 34.8936 136.95 35.2363 136.81 35.5586C136.675 35.8809 136.487 36.1621 136.247 36.4023C136.007 36.6426 135.726 36.833 135.403 36.9736C135.081 37.1084 134.738 37.1758 134.375 37.1758H133.654C133.291 37.1758 132.948 37.1084 132.626 36.9736C132.304 36.833 132.022 36.6426 131.782 36.4023C131.542 36.1621 131.352 35.8809 131.211 35.5586C131.076 35.2363 131.009 34.8936 131.009 34.5303V30.4697C131.009 30.1064 131.076 29.7637 131.211 29.4414C131.352 29.1191 131.542 28.8379 131.782 28.5977C132.022 28.3574 132.304 28.1699 132.626 28.0352C132.948 27.8945 133.291 27.8242 133.654 27.8242H134.375C134.738 27.8242 135.081 27.8945 135.403 28.0352C135.726 28.1699 136.007 28.3574 136.247 28.5977C136.487 28.8379 136.675 29.1191 136.81 29.4414C136.95 29.7637 137.021 30.1064 137.021 30.4697V34.5303ZM135.939 30.4082C135.939 30.1914 135.898 29.9893 135.816 29.8018C135.734 29.6084 135.623 29.4414 135.482 29.3008C135.342 29.1602 135.175 29.0488 134.981 28.9668C134.794 28.8848 134.592 28.8438 134.375 28.8438H133.654C133.438 28.8438 133.232 28.8848 133.039 28.9668C132.852 29.0488 132.688 29.1602 132.547 29.3008C132.406 29.4414 132.295 29.6084 132.213 29.8018C132.131 29.9893 132.09 30.1914 132.09 30.4082V34.5918C132.09 34.8086 132.131 35.0137 132.213 35.207C132.295 35.3945 132.406 35.5586 132.547 35.6992C132.688 35.8398 132.852 35.9512 133.039 36.0332C133.232 36.1152 133.438 36.1562 133.654 36.1562H134.375C134.592 36.1562 134.794 36.1152 134.981 36.0332C135.175 35.9512 135.342 35.8398 135.482 35.6992C135.623 35.5586 135.734 35.3945 135.816 35.207C135.898 35.0137 135.939 34.8086 135.939 34.5918V30.4082ZM145.282 38.1338C145.282 38.4971 145.212 38.8311 145.071 39.1357C144.937 39.4404 144.749 39.7012 144.509 39.918C144.269 40.1348 143.987 40.3018 143.665 40.4189C143.343 40.542 143 40.6035 142.637 40.6035H142.188C141.825 40.6035 141.482 40.542 141.16 40.4189C140.838 40.3018 140.557 40.1348 140.316 39.918C140.076 39.7012 139.886 39.4404 139.745 39.1357C139.61 38.8311 139.543 38.4971 139.543 38.1338V38.0986C139.543 37.7471 139.607 37.4248 139.736 37.1318C139.865 36.8389 140.041 36.584 140.264 36.3672C139.982 36.1973 139.757 35.9688 139.587 35.6816C139.423 35.3887 139.341 35.0664 139.341 34.7148C139.341 34.3984 139.408 34.1055 139.543 33.8359C139.678 33.5605 139.862 33.3379 140.097 33.168C139.815 32.9219 139.593 32.626 139.429 32.2803C139.265 31.9346 139.183 31.5566 139.183 31.1465V30.4697C139.183 30.1064 139.25 29.7637 139.385 29.4414C139.525 29.1191 139.716 28.8379 139.956 28.5977C140.196 28.3574 140.478 28.1699 140.8 28.0352C141.122 27.8945 141.465 27.8242 141.828 27.8242H142.276C142.716 27.8242 143.12 27.9238 143.489 28.123C143.864 28.3164 144.175 28.5801 144.421 28.9141L145.01 28H145.37V31.1465C145.37 31.5098 145.3 31.8525 145.159 32.1748C145.024 32.4971 144.837 32.7783 144.597 33.0186C144.356 33.2588 144.075 33.4492 143.753 33.5898C143.431 33.7246 143.088 33.792 142.725 33.792H141.16C141.037 33.792 140.92 33.8184 140.809 33.8711C140.697 33.918 140.598 33.9824 140.51 34.0645C140.428 34.1465 140.363 34.2461 140.316 34.3633C140.27 34.4746 140.246 34.5918 140.246 34.7148C140.246 34.8379 140.27 34.9551 140.316 35.0664C140.363 35.1777 140.428 35.2773 140.51 35.3652C140.598 35.4473 140.697 35.5117 140.809 35.5586C140.92 35.6055 141.037 35.6289 141.16 35.6289H142.637C143 35.6289 143.343 35.6904 143.665 35.8135C143.987 35.9307 144.269 36.0977 144.509 36.3145C144.749 36.5312 144.937 36.792 145.071 37.0967C145.212 37.4014 145.282 37.7354 145.282 38.0986V38.1338ZM144.298 30.4082C144.298 30.1914 144.257 29.9893 144.175 29.8018C144.093 29.6084 143.979 29.4414 143.832 29.3008C143.691 29.1602 143.524 29.0488 143.331 28.9668C143.144 28.8848 142.941 28.8438 142.725 28.8438H141.828C141.611 28.8438 141.406 28.8848 141.213 28.9668C141.025 29.0488 140.861 29.1602 140.721 29.3008C140.58 29.4414 140.469 29.6084 140.387 29.8018C140.305 29.9893 140.264 30.1914 140.264 30.4082V31.208C140.264 31.4248 140.305 31.6299 140.387 31.8232C140.469 32.0107 140.58 32.1748 140.721 32.3154C140.861 32.4561 141.025 32.5674 141.213 32.6494C141.406 32.7314 141.611 32.7725 141.828 32.7725H142.725C142.941 32.7725 143.144 32.7314 143.331 32.6494C143.524 32.5674 143.691 32.4561 143.832 32.3154C143.979 32.1748 144.093 32.0107 144.175 31.8232C144.257 31.6299 144.298 31.4248 144.298 31.208V30.4082ZM144.254 38.0459C144.254 37.8291 144.213 37.6328 144.131 37.457C144.049 37.2871 143.938 37.1436 143.797 37.0264C143.656 36.9092 143.489 36.8184 143.296 36.7539C143.108 36.6895 142.906 36.6572 142.689 36.6572H142.136C141.919 36.6572 141.714 36.6895 141.521 36.7539C141.333 36.8184 141.169 36.9092 141.028 37.0264C140.888 37.1436 140.776 37.2871 140.694 37.457C140.612 37.6328 140.571 37.8291 140.571 38.0459V38.1865C140.571 38.4033 140.612 38.5967 140.694 38.7666C140.776 38.9365 140.888 39.0801 141.028 39.1973C141.169 39.3203 141.333 39.4141 141.521 39.4785C141.714 39.543 141.919 39.5752 142.136 39.5752H142.689C142.906 39.5752 143.108 39.543 143.296 39.4785C143.489 39.4141 143.656 39.3203 143.797 39.1973C143.938 39.0801 144.049 38.9365 144.131 38.7666C144.213 38.5967 144.254 38.4033 144.254 38.1865V38.0459Z" fill="#6246EA"/>
</svg>
