<svg width="470" height="387" viewBox="0 0 470 387" fill="none" xmlns="http://www.w3.org/2000/svg">
<path d="M178.846 38.126C173.9 45.2757 181.449 49.5228 181.449 49.5228C181.449 49.5228 175.75 58.3123 186.428 61.6248C186.428 61.6248 184.299 76.1045 194.731 79.6629L258.271 74.9074C258.271 74.9074 266.803 24.335 242.615 15.07C218.427 5.80493 188.786 28.369 186.182 36.2074C186.199 36.2238 181.662 34.0592 178.846 38.126Z" fill="#35174D"/>
<path d="M451.478 275.787C448.744 304.106 390.804 303.418 382.125 303.418C373.462 303.418 368.794 299.335 368.794 299.335L371.415 316.668L375.771 345.447H316.079C316.079 345.447 145.88 191.352 145.88 167.951C145.88 144.567 158.359 135.811 168.299 134.843C178.223 133.876 226.452 121.495 227.188 117.609C227.909 113.722 225.944 104.392 225.944 104.392C197.138 107.048 194.583 78.7938 194.583 78.7938C188.229 66.8558 187.705 48.1453 199.365 53.8519C211.025 59.5585 227.057 53.4584 229.432 50.1295C231.823 46.8171 237.26 44.964 237.915 45.7512C238.586 46.5547 237.915 53.3108 237.915 53.3108L243.483 54.2455C243.483 54.2455 245.333 62.871 245.464 65.5275C245.595 68.1841 247.593 68.7088 248.51 68.7088C249.444 68.7088 250.77 56.0985 250.77 56.0985C250.77 56.0985 261.759 54.2455 261.759 65.5275C261.759 76.8096 252.228 77.5967 252.228 77.5967C254.193 97.947 262.398 107.179 270.602 111.41C270.602 111.41 270.602 111.41 270.602 111.426C279.167 115.854 287.764 114.821 289.271 115.296C292.235 116.215 321.68 114.493 321.68 114.493C354.76 111.984 370.956 140.091 373.92 143.731C376.884 147.388 393.31 167.263 418.857 196.96C444.42 226.657 454.23 247.45 451.478 275.787Z" fill="#6246EA"/>
<path d="M252.146 132.974C231.856 135.302 227.188 117.609 227.188 117.609C227.909 113.722 225.944 104.392 225.944 104.392C197.138 107.048 194.583 78.7938 194.583 78.7938C188.229 66.8558 187.705 48.1453 199.365 53.8519C211.025 59.5585 227.057 53.4584 229.432 50.1295C231.823 46.8171 237.26 44.964 237.915 45.7512C238.586 46.5547 237.915 53.3108 237.915 53.3108L243.483 54.2455C243.483 54.2455 245.333 62.871 245.464 65.5275C245.595 68.184 247.593 68.7088 248.51 68.7088C249.444 68.7088 250.77 56.0985 250.77 56.0985C250.77 56.0985 261.759 54.2455 261.759 65.5275C261.759 76.8096 252.228 77.5967 252.228 77.5967C254.193 97.947 262.397 107.179 270.602 111.41C270.602 111.41 270.602 111.41 270.602 111.426C270.667 112.099 272.076 130.694 252.146 132.974Z" fill="#FDAC9D"/>
<path d="M371.415 316.668C371.415 316.668 349.388 314.159 339.645 310.633C329.917 307.107 311.264 304.09 311.264 304.09V275.36L369.499 295.481L369.089 301.253L371.415 316.668Z" fill="#37164D"/>
<path d="M366.977 252.075C364.995 250.73 364.962 247.729 366.862 246.253C367.828 245.499 369.04 244.892 370.514 244.679C374.886 244.056 391.525 243.17 396.552 242.908C397.535 242.859 398.255 243.63 399.205 243.843C402.775 244.679 408.048 252.534 408.327 260.192C408.703 269.982 409.883 301.024 405.412 302.319C401.498 303.451 380.094 304.926 372.626 301.63C371.267 301.04 370.399 299.695 370.399 298.22C370.432 290.643 370.596 260.848 370.498 258.158C370.432 256.24 369.138 253.567 366.977 252.075Z" fill="#35174D"/>
<path d="M370.497 245.515C370.285 245.515 370.072 245.433 369.908 245.269L348.684 223.279C348.373 222.951 348.373 222.427 348.701 222.115C349.028 221.803 349.552 221.803 349.863 222.131L371.087 244.121C371.398 244.449 371.398 244.974 371.071 245.286C370.907 245.433 370.694 245.515 370.497 245.515Z" fill="#35164B"/>
<path d="M320.861 166.656H50.0787V345.447H320.861V166.656Z" fill="#3A3A47"/>
<path d="M320.861 166.656H50.0787V180.742H320.861V166.656Z" fill="#FFBB4E"/>
<path d="M162.813 220.098H130.306C129.406 220.098 128.669 219.36 128.669 218.458C128.669 217.556 129.406 216.818 130.306 216.818H162.813C163.714 216.818 164.451 217.556 164.451 218.458C164.451 219.36 163.714 220.098 162.813 220.098Z" fill="#E5E6ED"/>
<path d="M171.394 230.577H138.904C138.003 230.577 137.266 229.839 137.266 228.937C137.266 228.035 138.003 227.297 138.904 227.297H171.411C172.311 227.297 173.048 228.035 173.048 228.937C173.048 229.839 172.311 230.577 171.394 230.577Z" fill="#E5E6ED"/>
<path d="M156.967 274.836H136.153C135.252 274.836 134.515 274.098 134.515 273.196C134.515 272.294 135.252 271.556 136.153 271.556H156.967C157.867 271.556 158.604 272.294 158.604 273.196C158.604 274.098 157.884 274.836 156.967 274.836Z" fill="#E5E6ED"/>
<path d="M177.175 286.938H136.153C135.252 286.938 134.515 286.2 134.515 285.298C134.515 284.396 135.252 283.658 136.153 283.658H177.175C178.076 283.658 178.813 284.396 178.813 285.298C178.813 286.2 178.076 286.938 177.175 286.938Z" fill="#E5E6ED"/>
<path d="M207.357 299.039H145.716C144.816 299.039 144.079 298.302 144.079 297.4C144.079 296.498 144.816 295.76 145.716 295.76H207.357C208.257 295.76 208.994 296.498 208.994 297.4C208.994 298.302 208.257 299.039 207.357 299.039Z" fill="#E5E6ED"/>
<path d="M188.753 311.141H152.676C151.776 311.141 151.039 310.403 151.039 309.502C151.039 308.6 151.776 307.862 152.676 307.862H188.753C189.654 307.862 190.391 308.6 190.391 309.502C190.391 310.403 189.654 311.141 188.753 311.141Z" fill="#E5E6ED"/>
<path d="M180.844 324.801H144.767C143.866 324.801 143.129 324.063 143.129 323.161C143.129 322.259 143.866 321.521 144.767 321.521H180.844C181.744 321.521 182.481 322.259 182.481 323.161C182.481 324.063 181.761 324.801 180.844 324.801Z" fill="#E5E6ED"/>
<path d="M252.539 324.801H216.462C215.561 324.801 214.824 324.063 214.824 323.161C214.824 322.259 215.561 321.521 216.462 321.521H252.539C253.44 321.521 254.177 322.259 254.177 323.161C254.177 324.063 253.44 324.801 252.539 324.801Z" fill="#E5E6ED"/>
<path d="M234.492 311.141H198.415C197.515 311.141 196.778 310.403 196.778 309.502C196.778 308.6 197.515 307.862 198.415 307.862H234.492C235.393 307.862 236.13 308.6 236.13 309.502C236.13 310.403 235.393 311.141 234.492 311.141Z" fill="#BB7FEF"/>
<path d="M241.665 207.799H205.588C204.687 207.799 203.95 207.061 203.95 206.159C203.95 205.257 204.687 204.52 205.588 204.52H241.665C242.566 204.52 243.303 205.257 243.303 206.159C243.303 207.061 242.566 207.799 241.665 207.799Z" fill="#BB7FEF"/>
<path d="M230.382 299.039H216.871C215.971 299.039 215.234 298.302 215.234 297.4C215.234 296.498 215.971 295.76 216.871 295.76H230.382C231.283 295.76 232.019 296.498 232.019 297.4C232.019 298.302 231.299 299.039 230.382 299.039Z" fill="#11BDED"/>
<path d="M204.589 324.801H191.079C190.178 324.801 189.441 324.063 189.441 323.161C189.441 322.259 190.178 321.521 191.079 321.521H204.589C205.49 321.521 206.227 322.259 206.227 323.161C206.227 324.063 205.49 324.801 204.589 324.801Z" fill="#11BDED"/>
<path d="M262.463 286.938H188.753C187.853 286.938 187.116 286.2 187.116 285.298C187.116 284.396 187.853 283.658 188.753 283.658H262.463C263.364 283.658 264.101 284.396 264.101 285.298C264.101 286.2 263.364 286.938 262.463 286.938Z" fill="#E5E6ED"/>
<path d="M187.771 241.367H155.28C154.379 241.367 153.642 240.629 153.642 239.727C153.642 238.825 154.379 238.087 155.28 238.087H187.787C188.688 238.087 189.425 238.825 189.425 239.727C189.425 240.629 188.688 241.367 187.771 241.367Z" fill="#E5E6ED"/>
<path d="M284.063 207.799H251.556C250.656 207.799 249.919 207.061 249.919 206.159C249.919 205.257 250.656 204.52 251.556 204.52H284.063C284.964 204.52 285.701 205.257 285.701 206.159C285.701 207.061 284.98 207.799 284.063 207.799Z" fill="#E5E6ED"/>
<path d="M177.175 252.386H155.28C154.379 252.386 153.642 251.648 153.642 250.746C153.642 249.844 154.379 249.107 155.28 249.107H177.175C178.076 249.107 178.813 249.844 178.813 250.746C178.813 251.648 178.076 252.386 177.175 252.386Z" fill="#E5E6ED"/>
<path d="M225.616 262.717H155.28C154.379 262.717 153.642 261.979 153.642 261.077C153.642 260.175 154.379 259.438 155.28 259.438H225.633C226.533 259.438 227.27 260.175 227.27 261.077C227.27 261.979 226.533 262.717 225.616 262.717Z" fill="#E5E6ED"/>
<path d="M254.144 220.098H202.198C201.297 220.098 200.561 219.36 200.561 218.458C200.561 217.556 201.297 216.818 202.198 216.818H254.144C255.045 216.818 255.781 217.556 255.781 218.458C255.781 219.36 255.045 220.098 254.144 220.098Z" fill="#E5E6ED"/>
<path d="M308.087 220.098H262.463C261.562 220.098 260.825 219.36 260.825 218.458C260.825 217.556 261.562 216.818 262.463 216.818H308.087C308.988 216.818 309.725 217.556 309.725 218.458C309.725 219.36 308.988 220.098 308.087 220.098Z" fill="#11BDED"/>
<path d="M218.132 335.165H172.508C171.607 335.165 170.87 334.427 170.87 333.525C170.87 332.623 171.607 331.885 172.508 331.885H218.132C219.033 331.885 219.77 332.623 219.77 333.525C219.77 334.427 219.033 335.165 218.132 335.165Z" fill="#11BDED"/>
<path d="M193.109 220.262H173.867C172.966 220.262 172.229 219.524 172.229 218.622C172.229 217.72 172.966 216.982 173.867 216.982H193.109C194.01 216.982 194.747 217.72 194.747 218.622C194.747 219.524 194.026 220.262 193.109 220.262Z" fill="#F39695"/>
<path d="M217.068 241.367H197.826C196.925 241.367 196.188 240.629 196.188 239.727C196.188 238.825 196.925 238.087 197.826 238.087H217.068C217.969 238.087 218.706 238.825 218.706 239.727C218.706 240.629 217.969 241.367 217.068 241.367Z" fill="#F39695"/>
<path d="M241.6 252.386H185.707C184.807 252.386 184.07 251.648 184.07 250.746C184.07 249.844 184.807 249.107 185.707 249.107H241.6C242.5 249.107 243.237 249.844 243.237 250.746C243.237 251.648 242.5 252.386 241.6 252.386Z" fill="#F39695"/>
<path d="M301.308 252.386H275.646C274.745 252.386 274.008 251.648 274.008 250.746C274.008 249.844 274.745 249.107 275.646 249.107H301.308C302.208 249.107 302.945 249.844 302.945 250.746C302.945 251.648 302.208 252.386 301.308 252.386Z" fill="#F39695"/>
<path d="M267.818 252.386H247.692C246.791 252.386 246.054 251.648 246.054 250.746C246.054 249.844 246.791 249.107 247.692 249.107H267.818C268.719 249.107 269.456 249.844 269.456 250.746C269.456 251.648 268.719 252.386 267.818 252.386Z" fill="#FFBB4E"/>
<path d="M165.221 335.165H145.078C144.177 335.165 143.44 334.427 143.44 333.525C143.44 332.623 144.177 331.885 145.078 331.885H165.204C166.105 331.885 166.842 332.623 166.842 333.525C166.842 334.427 166.121 335.165 165.221 335.165Z" fill="#FFBB4E"/>
<path d="M220.949 197.14H200.823C199.922 197.14 199.185 196.402 199.185 195.501C199.185 194.599 199.922 193.861 200.823 193.861H220.949C221.85 193.861 222.587 194.599 222.587 195.501C222.587 196.402 221.866 197.14 220.949 197.14Z" fill="#FFBB4E"/>
<path d="M116.779 166.64H50.0787V345.43H116.779V166.64Z" fill="#1C1A23"/>
<path d="M116.779 226.264H50.0787V239.727H116.779V226.264Z" fill="black"/>
<path d="M64.8337 213.407H56.9403V221.311H64.8337V213.407Z" fill="#62687E"/>
<path d="M72.3996 228.937H64.5062V236.841H72.3996V228.937Z" fill="#62687E"/>
<path d="M83.9776 242.842H76.0842V250.746H83.9776V242.842Z" fill="#62687E"/>
<path d="M83.9776 256.043H76.0842V263.947H83.9776V256.043Z" fill="#62687E"/>
<path d="M83.9776 269.244H76.0842V277.148H83.9776V269.244Z" fill="#62687E"/>
<path d="M83.9776 282.444H76.0842V290.348H83.9776V282.444Z" fill="#62687E"/>
<path d="M83.9776 295.645H76.0842V303.549H83.9776V295.645Z" fill="#62687E"/>
<path d="M209.256 126.349V205.782H42.2672V126.349C42.2672 119.79 47.5731 114.477 54.1237 114.477H197.4C203.95 114.477 209.256 119.79 209.256 126.349Z" fill="#D9DEF1"/>
<path d="M209.256 126.349V143.288H42.2672V126.349C42.2672 119.79 47.5731 114.477 54.1237 114.477H197.4C203.95 114.477 209.256 119.79 209.256 126.349Z" fill="#33184B"/>
<path d="M110.786 154.472H73.0874C72.4324 154.472 71.9083 154.997 71.9083 155.653V193.402C71.9083 194.057 72.4324 194.582 73.0874 194.582H110.786C111.441 194.582 111.965 194.057 111.965 193.402V155.636C111.965 154.997 111.441 154.472 110.786 154.472ZM109.623 156.817V163.95H74.2665V156.817H109.623ZM74.2665 192.204V166.279H109.623V192.204H74.2665Z" fill="white"/>
<path d="M82.5529 180.381H94.2783C94.9334 180.381 95.4574 179.857 95.4574 179.201C95.4574 178.545 94.9334 178.02 94.2783 178.02H82.5529C81.8978 178.02 81.3738 178.545 81.3738 179.201C81.3902 179.857 81.9142 180.381 82.5529 180.381Z" fill="white"/>
<path d="M82.5529 185.088H91.9365C92.5915 185.088 93.1156 184.563 93.1156 183.907C93.1156 183.251 92.5915 182.726 91.9365 182.726H82.5529C81.8978 182.726 81.3738 183.251 81.3738 183.907C81.3738 184.563 81.9142 185.088 82.5529 185.088Z" fill="white"/>
<path d="M94.2948 187.432H82.5693C81.9143 187.432 81.3903 187.957 81.3903 188.613C81.3903 189.269 81.9143 189.794 82.5693 189.794H94.2948C94.9498 189.794 95.4739 189.269 95.4739 188.613C95.4739 187.957 94.9335 187.432 94.2948 187.432Z" fill="white"/>
<path d="M86.4178 175.347C86.8763 175.806 87.6132 175.806 88.0718 175.347C88.5303 174.888 88.5303 174.15 88.0718 173.691L86.5488 172.166L88.0718 170.641C88.5303 170.181 88.5303 169.444 88.0718 168.984C87.6132 168.525 86.8763 168.525 86.4178 168.984L84.076 171.329C83.6174 171.789 83.6174 172.526 84.076 172.986L86.4178 175.347Z" fill="white"/>
<path d="M97.3243 172.166L95.8177 173.674C95.3591 174.134 95.3591 174.871 95.8177 175.331C96.2762 175.79 97.0131 175.79 97.4717 175.331L99.8135 172.986C100.272 172.526 100.272 171.789 99.8135 171.329L97.4553 168.968C96.9968 168.509 96.2598 168.509 95.8013 168.968C95.3428 169.427 95.3428 170.165 95.8013 170.624L97.3243 172.166Z" fill="white"/>
<path d="M90.2498 175.56C90.823 175.855 91.5272 175.609 91.822 175.035L94.1638 170.329C94.4585 169.755 94.2129 169.05 93.6397 168.755C93.0666 168.46 92.3624 168.706 92.0676 169.28L89.7258 173.986C89.431 174.56 89.6603 175.265 90.2498 175.56Z" fill="white"/>
<path d="M101.32 178.036H98.9784C98.3234 178.036 97.7993 178.561 97.7993 179.217C97.7993 179.873 98.3234 180.398 98.9784 180.398H101.32C101.975 180.398 102.499 179.873 102.499 179.217C102.499 178.561 101.975 178.036 101.32 178.036Z" fill="white"/>
<path d="M101.32 182.743H96.6201C95.9651 182.743 95.441 183.267 95.441 183.923C95.441 184.579 95.9651 185.104 96.6201 185.104H101.32C101.975 185.104 102.499 184.579 102.499 183.923C102.499 183.267 101.975 182.743 101.32 182.743Z" fill="white"/>
<path d="M101.32 187.432H98.9784C98.3234 187.432 97.7993 187.957 97.7993 188.613C97.7993 189.269 98.3234 189.794 98.9784 189.794H101.32C101.975 189.794 102.499 189.269 102.499 188.613C102.499 187.957 101.975 187.432 101.32 187.432Z" fill="white"/>
<path d="M106.02 161.589C106.671 161.589 107.199 161.06 107.199 160.408C107.199 159.756 106.671 159.227 106.02 159.227C105.369 159.227 104.841 159.756 104.841 160.408C104.841 161.06 105.369 161.589 106.02 161.589Z" fill="white"/>
<path d="M101.32 161.589C101.971 161.589 102.499 161.06 102.499 160.408C102.499 159.756 101.971 159.227 101.32 159.227C100.669 159.227 100.141 159.756 100.141 160.408C100.141 161.06 100.669 161.589 101.32 161.589Z" fill="white"/>
<path d="M96.6365 161.589C97.2877 161.589 97.8156 161.06 97.8156 160.408C97.8156 159.756 97.2877 159.227 96.6365 159.227C95.9853 159.227 95.4574 159.756 95.4574 160.408C95.4574 161.06 95.9853 161.589 96.6365 161.589Z" fill="white"/>
<path d="M309.135 188.58C307.776 188.466 307.088 186.875 307.924 185.793C309.528 183.71 312.591 181.365 317.815 182.644C317.815 182.644 327.624 180.25 329.229 191.417C330.818 202.568 332.685 206.553 332.947 219.048C333.209 231.528 327.379 251.714 352.303 251.189L365.306 251.206C365.306 251.206 370.35 250.664 370.612 261.29C370.841 270.408 371.66 292.218 371.873 298.236C371.906 299.121 371.267 299.892 370.383 300.023C364.176 300.892 341.02 304.024 333.471 303.795C324.709 303.532 302.437 296.088 303.764 269.801C305.09 243.498 307.219 213.752 305.352 207.652C303.535 201.65 301.701 196.419 307.694 194.221C307.924 194.139 308.153 194.107 308.398 194.123C309.856 194.221 315.031 195.337 315.702 205.799C316.505 218.015 318.617 236.086 320.206 234.758C321.794 233.43 320.468 204.47 319.141 200.764C317.897 197.206 321.074 189.548 309.135 188.58Z" fill="#FFAA97"/>
<path d="M309.545 310.797V363.763C309.545 370.651 303.961 376.243 297.083 376.243H244.187C237.309 376.243 231.741 370.651 231.741 363.763V310.797C231.741 303.91 237.309 298.334 244.187 298.334H297.083C303.961 298.334 309.545 303.91 309.545 310.797Z" fill="#F7684E"/>
<path d="M309.545 310.797V329.819C295.969 325.145 285.963 330.606 280.706 337.28C275.449 343.954 268.85 357.286 255.225 352.022C241.616 346.775 231.741 354.17 231.741 354.17V310.797C231.741 303.91 237.309 298.334 244.187 298.334H297.083C303.961 298.334 309.545 303.91 309.545 310.797Z" fill="#FFBB4E"/>
<path d="M255.225 340.658C263.175 340.658 269.619 334.205 269.619 326.244C269.619 318.283 263.175 311.83 255.225 311.83C247.275 311.83 240.83 318.283 240.83 326.244C240.83 334.205 247.275 340.658 255.225 340.658Z" fill="white"/>
<path d="M195.107 138.73H78.9993C73.7261 138.73 69.4519 134.45 69.4519 129.169C69.4519 123.889 73.7261 119.609 78.9993 119.609H195.091C200.364 119.609 204.638 123.889 204.638 129.169C204.638 134.466 200.364 138.73 195.107 138.73Z" fill="white"/>
<path d="M56.9403 138.73C51.6672 138.73 47.3929 134.45 47.3929 129.169C47.3929 123.889 51.6672 119.609 56.9403 119.609C62.2135 119.609 66.4877 123.889 66.4877 129.169C66.4877 134.466 62.2135 138.73 56.9403 138.73Z" fill="white"/>
<path d="M195.32 167.869H130.306C129.635 167.869 129.078 167.312 129.078 166.64C129.078 165.967 129.635 165.41 130.306 165.41H195.32C195.992 165.41 196.548 165.967 196.548 166.64C196.548 167.312 195.992 167.869 195.32 167.869Z" fill="white"/>
<path d="M173.048 160.687H129.897C129.455 160.687 129.078 160.129 129.078 159.457C129.078 158.785 129.438 158.227 129.897 158.227H173.048C173.491 158.227 173.867 158.785 173.867 159.457C173.867 160.129 173.491 160.687 173.048 160.687Z" fill="white"/>
<path d="M147.37 174.511H130.306C129.635 174.511 129.078 173.953 129.078 173.281C129.078 172.608 129.635 172.051 130.306 172.051H147.387C148.058 172.051 148.615 172.608 148.615 173.281C148.615 173.953 148.058 174.511 147.37 174.511Z" fill="white"/>
<path d="M162.224 193.434H131.305C130.077 193.434 129.078 192.877 129.078 192.204C129.078 191.532 130.077 190.975 131.305 190.975H162.224C163.452 190.975 164.451 191.532 164.451 192.204C164.451 192.877 163.452 193.434 162.224 193.434Z" fill="white"/>
<path d="M195.32 174.511H152.414C151.743 174.511 151.186 173.953 151.186 173.281C151.186 172.608 151.743 172.051 152.414 172.051H195.32C195.992 172.051 196.548 172.608 196.548 173.281C196.548 173.953 195.992 174.511 195.32 174.511Z" fill="white"/>
<path d="M195.32 181.972H130.306C129.635 181.972 129.078 181.414 129.078 180.742C129.078 180.07 129.635 179.512 130.306 179.512H195.32C195.992 179.512 196.548 180.07 196.548 180.742C196.548 181.414 195.992 181.972 195.32 181.972Z" fill="white"/>
<path d="M166.203 187.58H129.766C129.389 187.58 129.078 187.023 129.078 186.35C129.078 185.678 129.389 185.12 129.766 185.12H166.203C166.58 185.12 166.891 185.678 166.891 186.35C166.891 187.023 166.58 187.58 166.203 187.58Z" fill="white"/>
<path d="M195.697 187.58H169.773C169.495 187.58 169.282 187.023 169.282 186.35C169.282 185.678 169.495 185.12 169.773 185.12H195.697C195.975 185.12 196.188 185.678 196.188 186.35C196.188 187.023 195.959 187.58 195.697 187.58Z" fill="white"/>
<path d="M30.9512 110.787C21.8951 110.607 18.8818 117.035 18.8818 133.171C18.8818 149.307 18.8818 158.637 18.8818 158.637C18.8818 158.637 13.5923 172.74 24.9247 176.511C24.9247 176.511 21.9114 186.58 30.9675 191.368C30.9675 191.368 22.4355 205.504 50.0951 218.606V205.766H42.2836C42.2836 205.766 50.0787 200.436 62.148 197.665C74.2174 194.894 75.724 184.825 71.4498 182.054C67.1756 179.283 53.5996 181.3 53.5996 181.3C53.5996 181.3 73.7916 171.723 73.6278 161.654C73.4641 151.586 61.9024 153.849 61.9024 153.849C61.9024 153.849 67.4376 145.535 64.67 140.501C61.9024 135.466 46.8198 135.204 38.255 141.501L39.0083 124.119C38.9919 124.135 38.0257 110.934 30.9512 110.787Z" fill="#FBA795"/>
<path d="M91.9366 216.261H69.4683V218.442H91.9366V216.261Z" fill="#62687E"/>
<path d="M92.9191 231.79H77.0341V233.971H92.9191V231.79Z" fill="#62687E"/>
<path d="M105.791 245.696H88.5957V247.877H105.791V245.696Z" fill="#62687E"/>
<path d="M105.791 258.896H88.5957V261.077H105.791V258.896Z" fill="#62687E"/>
<path d="M105.791 272.097H88.5957V274.278H105.791V272.097Z" fill="#62687E"/>
<path d="M105.791 285.298H88.5957V287.479H105.791V285.298Z" fill="#62687E"/>
<path d="M105.791 298.498H88.5957V300.679H105.791V298.498Z" fill="#62687E"/>
<path d="M72.3996 310.928H64.5062V318.832H72.3996V310.928Z" fill="#62687E"/>
<path d="M99.5023 313.781H77.0341V315.962H99.5023V313.781Z" fill="#62687E"/>
<path d="M72.3996 323.161H64.5062V331.065H72.3996V323.161Z" fill="#62687E"/>
<path d="M99.5023 326.015H77.0341V328.196H99.5023V326.015Z" fill="#62687E"/>
<path d="M20.2574 159.129C20.11 159.129 19.9626 159.08 19.8316 158.982C19.5041 158.736 19.4386 158.244 19.6678 157.899C20.0117 157.391 28.3309 145.502 37.2232 141.567C37.5999 141.403 38.0257 141.583 38.1731 141.977C38.3204 142.37 38.1567 142.813 37.78 142.977C29.2644 146.732 20.9288 158.67 20.8469 158.785C20.7159 159.014 20.4867 159.129 20.2574 159.129Z" fill="#DD6B66"/>
<path d="M24.9083 177.348C24.7117 177.348 24.4989 177.266 24.3351 177.118C24.0076 176.806 23.9912 176.282 24.3023 175.954C25.1703 175.035 45.8372 153.537 61.8368 153.029C62.2954 152.963 62.672 153.373 62.6884 153.816C62.7048 154.275 62.3445 154.652 61.9023 154.669C46.5741 155.161 25.7107 176.856 25.4978 177.085C25.334 177.266 25.1212 177.348 24.9083 177.348Z" fill="#DD6B66"/>
<path d="M30.9511 192.204C30.7383 192.204 30.5254 192.122 30.3616 191.958C30.0505 191.63 30.0505 191.122 30.378 190.794C30.7055 190.483 38.5334 183.038 53.4522 180.496C53.8944 180.414 54.3201 180.726 54.402 181.168C54.4839 181.611 54.1728 182.037 53.7306 182.119C39.3522 184.563 31.6062 191.893 31.5243 191.975C31.3606 192.122 31.1477 192.204 30.9511 192.204Z" fill="#DD6B66"/>
<path d="M219.377 68.4627C219.115 68.4627 218.869 68.3971 218.624 68.2824C217.838 67.8724 217.51 66.9049 217.903 66.1014C218.05 65.8062 221.604 59.0009 233.33 63.3465C234.181 63.658 234.607 64.6091 234.296 65.4455C233.985 66.2982 233.051 66.7245 232.183 66.413C223.356 63.1333 220.916 67.3969 220.818 67.5772C220.54 68.1512 219.967 68.4627 219.377 68.4627Z" fill="#35174D"/>
<path d="M207.357 70.234C206.849 70.234 206.341 69.988 206.014 69.5453C201.969 63.7731 196.679 66.3476 196.09 66.6592C195.304 67.0855 194.305 66.7903 193.879 65.9868C193.453 65.1997 193.748 64.1994 194.534 63.773C197.4 62.2152 204.032 61.0181 208.683 67.6594C209.207 68.3974 209.027 69.4305 208.29 69.9388C208.012 70.1356 207.684 70.234 207.357 70.234Z" fill="#35174D"/>
<path d="M218.1 91.0434C218.083 91.0434 218.067 91.0434 218.05 91.0434C217.281 90.9942 213.416 90.6826 212.384 88.7968C212.122 88.3212 211.926 87.5341 212.499 86.5174C213.973 83.8773 213.76 74.4483 210.485 72.4805C210.092 72.2509 209.977 71.7426 210.206 71.349C210.435 70.9554 210.943 70.8406 211.336 71.0702C215.594 73.6284 215.807 83.9593 213.94 87.3209C213.694 87.7637 213.793 87.9441 213.842 88.0261C214.284 88.8296 216.691 89.3379 218.165 89.4199C218.624 89.4527 218.967 89.8299 218.935 90.289C218.886 90.7154 218.525 91.0434 218.1 91.0434Z" fill="#DD6B66"/>
<path d="M219.148 96.2579C217.084 96.2579 215.561 95.7659 215.528 95.7659C215.103 95.6183 214.857 95.1592 215.004 94.7328C215.152 94.3065 215.61 94.0605 216.036 94.2081C216.298 94.2901 222.57 96.2579 225.977 91.2564C226.239 90.8792 226.746 90.7972 227.123 91.0432C227.5 91.3056 227.598 91.8139 227.336 92.1911C225.043 95.52 221.702 96.2579 219.148 96.2579Z" fill="#DD6B66"/>
<path d="M206.276 82.1882C205.146 82.1882 204.147 81.0076 203.852 79.3022C203.541 77.4655 204.229 75.9241 205.457 75.7109C206.112 75.5961 206.784 75.9077 207.308 76.5472C207.717 77.072 208.028 77.7771 208.159 78.5642C208.47 80.4008 207.783 81.9423 206.554 82.1555C206.456 82.1718 206.358 82.1882 206.276 82.1882ZM205.719 77.3344C205.604 77.3999 205.293 78.0231 205.473 79.0234C205.637 80.0237 206.129 80.5156 206.292 80.532C206.407 80.4664 206.718 79.8433 206.538 78.843C206.358 77.8427 205.867 77.3508 205.719 77.3344Z" fill="#35164B"/>
<path d="M226.926 80.2696C225.796 80.2696 224.798 79.0889 224.503 77.3835C224.192 75.5468 224.879 74.0054 226.108 73.7922C226.763 73.6938 227.434 73.989 227.958 74.6285C228.368 75.1533 228.679 75.8584 228.81 76.6455C229.121 78.4821 228.433 80.0236 227.205 80.2368C227.107 80.2532 227.008 80.2696 226.926 80.2696ZM226.37 75.4157C226.255 75.4813 225.944 76.1044 226.124 77.1047C226.288 78.105 226.779 78.5969 226.943 78.6133C227.057 78.5477 227.369 77.9246 227.188 76.9243C227.008 75.924 226.517 75.4321 226.37 75.4157Z" fill="#35164B"/>
<path d="M227.794 90.3874C221.096 90.3874 215.627 84.9268 215.627 78.2035C215.627 71.4966 221.08 66.0195 227.794 66.0195C234.509 66.0195 239.962 71.4802 239.962 78.2035C239.962 84.9104 234.509 90.3874 227.794 90.3874ZM227.794 67.6594C221.997 67.6594 217.264 72.3821 217.264 78.2035C217.264 84.0249 221.981 88.7476 227.794 88.7476C233.608 88.7476 238.324 84.0249 238.324 78.2035C238.324 72.3821 233.608 67.6594 227.794 67.6594Z" fill="white"/>
<path d="M198.71 92.1257C192.012 92.1257 186.542 86.6651 186.542 79.9418C186.542 73.2348 191.996 67.7578 198.71 67.7578C205.408 67.7578 210.861 73.2184 210.861 79.9418C210.861 86.6651 205.408 92.1257 198.71 92.1257ZM198.71 69.414C192.913 69.414 188.18 74.1368 188.18 79.9581C188.18 85.7795 192.896 90.5023 198.71 90.5023C204.524 90.5023 209.224 85.7795 209.224 79.9581C209.224 74.1368 204.507 69.414 198.71 69.414Z" fill="white"/>
<path d="M215.724 77.0365L210.282 77.3882L210.387 79.0246L215.829 78.6729L215.724 77.0365Z" fill="white"/>
<path d="M250.113 55.5983L237.483 73.0649L238.81 74.0267L251.44 56.56L250.113 55.5983Z" fill="white"/>
<path d="M255.29 72.5951C255.126 72.5951 254.963 72.5459 254.815 72.4475C254.439 72.1852 254.357 71.6768 254.602 71.2997C256.207 68.9875 256.797 66.8885 256.371 65.0519C255.831 62.7069 253.751 61.5427 253.734 61.5427C253.341 61.3295 253.194 60.8211 253.407 60.4276C253.62 60.034 254.111 59.8864 254.52 60.0996C254.635 60.1652 257.239 61.6083 257.959 64.6583C258.516 66.9705 257.828 69.5286 255.945 72.2508C255.814 72.4639 255.552 72.5951 255.29 72.5951Z" fill="#DD6B66"/>
<path d="M253.44 67.6593H253.423C252.965 67.6429 252.621 67.2657 252.621 66.823C252.621 66.577 252.719 64.4616 254.078 63.5597C254.57 63.2317 255.421 62.953 256.649 63.4449C257.075 63.6089 257.272 64.0845 257.108 64.5108C256.944 64.9372 256.453 65.134 256.044 64.97C255.585 64.7896 255.225 64.7732 254.979 64.9372C254.455 65.2815 254.275 66.3966 254.258 66.8722C254.242 67.3149 253.882 67.6593 253.44 67.6593Z" fill="#DD6B66"/>
</svg>
