<svg width="60" height="60" viewBox="0 0 60 60" fill="none" xmlns="http://www.w3.org/2000/svg">
<rect width="60" height="60" rx="7.45763" fill="#FFFFFE"/>
<path d="M42.888 23.6565C42.4623 23.5089 42.033 23.3722 41.6005 23.2465C41.6731 22.9465 41.74 22.6501 41.7994 22.3589C42.7741 17.5777 42.1369 13.7259 39.9605 12.4577C37.8737 11.2419 34.4611 12.5096 31.0145 15.5407C30.6749 15.84 30.3427 16.1479 30.0184 16.4641C29.8013 16.2538 29.5804 16.0476 29.3558 15.8456C25.7436 12.6047 22.123 11.2387 19.9489 12.5106C17.8641 13.7301 17.2467 17.3511 18.1242 21.8824C18.2115 22.3312 18.3101 22.7776 18.4198 23.2214C17.9073 23.3685 17.4128 23.5251 16.9395 23.6919C12.7045 25.184 10 27.5223 10 29.9477C10 32.4527 12.9034 34.9653 17.3144 36.4888C17.672 36.6118 18.0326 36.7258 18.3958 36.8306C18.2778 37.3085 18.1731 37.7897 18.0817 38.2735C17.2452 42.7261 17.8984 46.2615 19.9777 47.4734C22.1252 48.7248 25.7295 47.4386 29.2391 44.3384C29.5236 44.0863 29.802 43.8271 30.0738 43.561C30.4249 43.9035 30.7855 44.2359 31.155 44.558C34.5547 47.5141 37.9122 48.7078 39.9894 47.4926C42.1348 46.2375 42.8322 42.4395 41.9269 37.8187C41.8556 37.4567 41.7756 37.0965 41.687 36.7384C41.9402 36.6626 42.1886 36.5846 42.4308 36.5035C47.0164 34.9683 50 32.4861 50 29.9477C50 27.5134 47.2081 25.1594 42.888 23.6565V23.6565ZM41.8934 34.8645C41.6747 34.9376 41.4503 35.0082 41.2216 35.0769C40.7153 33.4574 40.0322 31.7354 39.1961 29.956C39.9939 28.2192 40.6508 26.5191 41.1428 24.9102C41.552 25.0299 41.9491 25.156 42.3319 25.2891C46.0334 26.5769 48.2912 28.4807 48.2912 29.9477C48.2912 31.5102 45.8528 33.5387 41.8934 34.8645V34.8645ZM40.2506 38.1541C40.6509 40.1973 40.708 42.0446 40.4428 43.4889C40.2047 44.7866 39.7256 45.6517 39.1331 45.9983C37.8727 46.7357 35.1769 45.7773 32.2695 43.249C31.9258 42.9496 31.5904 42.6405 31.2637 42.3222C32.3909 41.0766 33.5173 39.6285 34.6167 38.0202C36.5505 37.8468 38.3773 37.5633 40.0341 37.1763C40.1139 37.5004 40.1861 37.8265 40.2506 38.1541V38.1541ZM23.6369 45.8709C22.4053 46.3103 21.4244 46.3229 20.8314 45.9775C19.5697 45.2422 19.0452 42.4034 19.7606 38.5956C19.8457 38.1456 19.9431 37.6981 20.0527 37.2536C21.6911 37.6199 23.5047 37.8833 25.443 38.0422C26.5498 39.6159 27.7087 41.0624 28.8767 42.329C28.6285 42.5717 28.3744 42.8082 28.1147 43.0383C26.5627 44.4091 25.0075 45.3817 23.6369 45.8709V45.8709ZM17.8672 34.8549C15.9167 34.1812 14.3059 33.3056 13.2019 32.3502C12.2097 31.4917 11.7089 30.6393 11.7089 29.9477C11.7089 28.4758 13.8803 26.5984 17.502 25.3225C17.9416 25.1677 18.4016 25.0217 18.8789 24.8846C19.3795 26.5299 20.0361 28.2501 20.8284 29.9897C20.0258 31.7549 19.3598 33.5027 18.8544 35.1674C18.5228 35.0714 18.1937 34.9672 17.8672 34.8549V34.8549ZM19.8013 21.5507C19.0495 17.6685 19.5487 14.74 20.8052 14.005C22.1433 13.2222 25.1023 14.3384 28.2212 17.1369C28.4246 17.3198 28.6247 17.5064 28.8214 17.6966C27.6592 18.9577 26.5109 20.3935 25.4139 21.9579C23.5327 22.1341 21.7319 22.417 20.0762 22.7961C19.9742 22.3834 19.8825 21.9682 19.8013 21.5508V21.5507ZM37.0555 25.8561C36.6644 25.1736 36.2588 24.4996 35.8391 23.8346C37.1153 23.9977 38.3381 24.2142 39.4864 24.4788C39.1417 25.5955 38.712 26.7628 38.2063 27.9596C37.8366 27.2508 37.4529 26.5495 37.0555 25.8561V25.8561ZM30.0192 18.9307C30.8073 19.7936 31.5967 20.7569 32.3731 21.8022C30.7981 21.727 29.2205 21.7267 27.6455 21.8013C28.4227 20.7656 29.2188 19.8036 30.0192 18.9307ZM22.9378 25.868C22.5454 26.5558 22.1689 27.2527 21.8086 27.9582C21.3111 26.7656 20.8853 25.5929 20.5377 24.4605C21.6789 24.2025 22.8959 23.9916 24.1641 23.8315C23.7396 24.5005 23.3307 25.1794 22.9378 25.8678V25.868ZM24.2005 36.1867C22.8903 36.0389 21.655 35.8389 20.5141 35.5878C20.8672 34.4352 21.3023 33.2376 21.8106 32.0194C22.1723 32.7255 22.5504 33.4228 22.9445 34.1109C23.3498 34.8183 23.7695 35.5111 24.2005 36.1867ZM30.0664 41.0862C29.2564 40.2033 28.4486 39.2264 27.6597 38.1757C28.4256 38.206 29.2064 38.2215 30 38.2215C30.8153 38.2215 31.6213 38.203 32.4145 38.1674C31.6356 39.2369 30.8492 40.2153 30.0664 41.0862ZM38.2223 31.9572C38.757 33.1888 39.2077 34.3801 39.5655 35.513C38.4058 35.7805 37.1536 35.9958 35.8342 36.1558C36.257 35.4785 36.6664 34.7928 37.0622 34.099C37.4646 33.3939 37.8514 32.6798 38.2223 31.9572V31.9572ZM35.582 33.2363C34.9761 34.2999 34.3361 35.3434 33.6631 36.365C32.444 36.4522 31.2222 36.4956 30 36.4949C28.7552 36.4949 27.5444 36.4558 26.3784 36.3794C25.6878 35.3601 25.0357 34.3148 24.4233 33.2458H24.4234C23.8139 32.1824 23.2446 31.096 22.7167 29.9889C23.2433 28.8816 23.8109 27.7946 24.4183 26.7304L24.4181 26.7306C25.0253 25.6661 25.6723 24.6253 26.3577 23.6104C27.5472 23.5195 28.767 23.4721 29.9998 23.4721H30C31.2384 23.4721 32.4598 23.5199 33.6491 23.6115C34.3275 24.6249 34.9704 25.6621 35.5764 26.7213C36.1858 27.7831 36.7609 28.8648 37.3008 29.9644C36.7665 31.0753 36.1932 32.1666 35.582 33.2363V33.2363ZM39.107 13.9536C40.4464 14.7342 40.9673 17.8821 40.1258 22.0103C40.072 22.2737 40.0117 22.5419 39.9461 22.814C38.2864 22.4268 36.4844 22.139 34.5977 21.9601C33.4986 20.3785 32.3597 18.9405 31.2164 17.6957C31.516 17.4038 31.8228 17.1195 32.1364 16.843C35.0895 14.2461 37.8495 13.2208 39.107 13.9536V13.9536ZM30 26.3382C31.9727 26.3382 33.5719 27.9543 33.5719 29.9477C33.5719 31.9411 31.9727 33.5572 30 33.5572C28.0273 33.5572 26.4281 31.9411 26.4281 29.9477C26.4281 27.9543 28.0273 26.3382 30 26.3382V26.3382Z" fill="#00D8FF"/>
</svg>
