<svg width="60" height="60" viewBox="0 0 60 60" fill="none" xmlns="http://www.w3.org/2000/svg">
<rect width="60" height="60" rx="7.45763" fill="#FFFFFE"/>
<path d="M30 18C24.6667 18 21.3333 20.6598 20 25.9792C22 23.3194 24.3333 22.322 27 22.987C28.5214 23.3663 29.6089 24.4674 30.8127 25.6859C32.7736 27.6712 35.043 29.9688 40 29.9688C45.3333 29.9688 48.6667 27.309 50 21.9896C48 24.6494 45.6667 25.6468 43 24.9818C41.4786 24.6025 40.3911 23.5015 39.1873 22.2829C37.2264 20.2976 34.957 18 30 18ZM20 29.9688C14.6667 29.9688 11.3333 32.6286 10 37.9481C12 35.2883 14.3333 34.2909 17 34.9558C18.5214 35.3352 19.6089 36.4362 20.8127 37.6548C22.7736 39.6401 25.043 41.9377 30 41.9377C35.3333 41.9377 38.6667 39.2779 40 33.9584C38 36.6182 35.6667 37.6156 33 36.9506C31.4786 36.5713 30.3911 35.4703 29.1873 34.2517C27.2264 32.2664 24.957 29.9688 20 29.9688Z" fill="url(#paint0_linear_2_1402)"/>
<defs>
<linearGradient id="paint0_linear_2_1402" x1="8.8888" y1="25.6601" x2="43.3904" y2="45.6049" gradientUnits="userSpaceOnUse">
<stop stop-color="#2298BD"/>
<stop offset="1" stop-color="#0ED7B5"/>
</linearGradient>
</defs>
</svg>
