<svg width="24" height="20" viewBox="0 0 24 20" fill="none" xmlns="http://www.w3.org/2000/svg">
<path d="M23 1.03813C22.0424 1.71361 20.9821 2.23024 19.86 2.56813C19.2577 1.87564 18.4573 1.38482 17.567 1.16206C16.6767 0.939292 15.7395 0.995328 14.8821 1.32259C14.0247 1.64984 13.2884 2.23253 12.773 2.99185C12.2575 3.75116 11.9877 4.65047 12 5.56813V6.56813C10.2426 6.6137 8.50127 6.22394 6.93101 5.43358C5.36074 4.64321 4.01032 3.47677 3 2.03813C3 2.03813 -1 11.0381 8 15.0381C5.94053 16.4361 3.48716 17.1371 1 17.0381C10 22.0381 21 17.0381 21 5.53813C20.9991 5.25959 20.9723 4.98173 20.92 4.70813C21.9406 3.70163 22.6608 2.43084 23 1.03813V1.03813Z" stroke="#2B2C34" stroke-width="2" stroke-linecap="round" stroke-linejoin="round"/>
</svg>

