<svg width="194" height="45" viewBox="0 0 194 45" fill="none" xmlns="http://www.w3.org/2000/svg">
<path d="M2.772 37H11.556C14.34 37 16.752 36.436 18.792 35.308C20.856 34.18 22.452 32.608 23.58 30.592C24.708 28.552 25.272 26.212 25.272 23.572C25.272 20.908 24.708 18.568 23.58 16.552C22.452 14.536 20.856 12.976 18.792 11.872C16.752 10.744 14.34 10.18 11.556 10.18H2.772V37ZM7.02 33.22V13.96H11.628C13.524 13.96 15.168 14.356 16.56 15.148C17.976 15.916 19.068 17.02 19.836 18.46C20.604 19.9 20.988 21.604 20.988 23.572C20.988 25.54 20.604 27.244 19.836 28.684C19.068 30.124 17.976 31.24 16.56 32.032C15.168 32.824 13.524 33.22 11.628 33.22H7.02ZM34.7158 37.432C36.0598 37.432 37.2718 37.204 38.3518 36.748C39.4318 36.268 40.3318 35.596 41.0518 34.732V37H44.9398V23.896C44.9398 22.552 44.6038 21.376 43.9318 20.368C43.2598 19.336 42.3358 18.532 41.1598 17.956C39.9838 17.38 38.6278 17.092 37.0918 17.092C35.8678 17.092 34.7038 17.308 33.5998 17.74C32.5198 18.148 31.5718 18.712 30.7558 19.432C29.9638 20.152 29.3758 20.992 28.9918 21.952L32.3758 23.644C32.7598 22.732 33.3478 22 34.1398 21.448C34.9558 20.896 35.9038 20.62 36.9838 20.62C38.1598 20.62 39.0958 20.932 39.7918 21.556C40.5118 22.156 40.8718 22.936 40.8718 23.896V24.652L34.6798 25.66C32.4238 26.044 30.7558 26.788 29.6758 27.892C28.6198 28.972 28.0918 30.292 28.0918 31.852C28.0918 33.532 28.7038 34.888 29.9278 35.92C31.1518 36.928 32.7478 37.432 34.7158 37.432ZM32.3398 31.708C32.3398 30.94 32.5918 30.304 33.0958 29.8C33.5998 29.296 34.3918 28.96 35.4718 28.792L40.8718 27.856V28.9C40.8718 29.884 40.6318 30.784 40.1518 31.6C39.6958 32.416 39.0598 33.064 38.2438 33.544C37.4278 34 36.4678 34.228 35.3638 34.228C34.4758 34.228 33.7438 34 33.1678 33.544C32.6158 33.064 32.3398 32.452 32.3398 31.708ZM56.8963 37.432C58.3363 37.432 59.5963 37.192 60.6763 36.712C61.7803 36.208 62.6323 35.524 63.2323 34.66C63.8323 33.772 64.1323 32.752 64.1323 31.6C64.1323 30.256 63.7003 29.104 62.8363 28.144C61.9723 27.16 60.7363 26.44 59.1283 25.984L55.9603 25.048C55.3603 24.856 54.7963 24.592 54.2683 24.256C53.7403 23.92 53.4763 23.416 53.4763 22.744C53.4763 22.048 53.7403 21.496 54.2683 21.088C54.7963 20.68 55.5043 20.476 56.3923 20.476C57.4243 20.476 58.3483 20.752 59.1643 21.304C60.0043 21.856 60.6163 22.6 61.0003 23.536L64.1323 22.06C63.5563 20.5 62.5723 19.288 61.1803 18.424C59.7883 17.536 58.2043 17.092 56.4283 17.092C55.1083 17.092 53.9203 17.344 52.8643 17.848C51.8083 18.328 50.9803 19 50.3803 19.864C49.7803 20.728 49.4803 21.748 49.4803 22.924C49.4803 24.244 49.8883 25.384 50.7043 26.344C51.5443 27.304 52.8043 28.024 54.4843 28.504L57.5443 29.368C58.1683 29.536 58.7563 29.8 59.3083 30.16C59.8603 30.496 60.1363 31.012 60.1363 31.708C60.1363 32.452 59.8363 33.04 59.2363 33.472C58.6363 33.904 57.8563 34.12 56.8963 34.12C55.7683 34.12 54.7363 33.796 53.8003 33.148C52.8883 32.5 52.1683 31.624 51.6403 30.52L48.5083 31.996C49.1083 33.652 50.1523 34.972 51.6403 35.956C53.1523 36.94 54.9043 37.432 56.8963 37.432ZM76.5422 37.216C76.8782 37.216 77.2502 37.192 77.6582 37.144C78.0662 37.096 78.4262 37.048 78.7382 37V33.508C78.2822 33.58 77.8382 33.616 77.4062 33.616C76.2302 33.616 75.3902 33.34 74.8862 32.788C74.4062 32.212 74.1662 31.432 74.1662 30.448V21.196H78.5942V17.524H74.1662V13.06H70.0982V14.572C70.0982 15.484 69.8462 16.204 69.3422 16.732C68.8382 17.26 68.1302 17.524 67.2182 17.524H66.6782V21.196H70.0982V30.628C70.0982 32.716 70.6622 34.336 71.7902 35.488C72.9182 36.64 74.5022 37.216 76.5422 37.216ZM91.5005 37.432C93.4925 37.432 95.2205 36.976 96.6845 36.064C98.1725 35.152 99.2165 34 99.8165 32.608L96.5045 30.988C96.0245 31.804 95.3645 32.488 94.5245 33.04C93.7085 33.568 92.7125 33.832 91.5365 33.832C90.0005 33.832 88.6925 33.352 87.6125 32.392C86.5325 31.408 85.9325 30.088 85.8125 28.432H100.284C100.356 28.144 100.404 27.832 100.428 27.496C100.452 27.16 100.464 26.836 100.464 26.524C100.464 24.844 100.092 23.296 99.3485 21.88C98.6285 20.44 97.5725 19.288 96.1805 18.424C94.8125 17.536 93.1445 17.092 91.1765 17.092C89.3525 17.092 87.7085 17.536 86.2445 18.424C84.8045 19.288 83.6645 20.488 82.8245 22.024C81.9845 23.536 81.5645 25.264 81.5645 27.208C81.5645 29.128 81.9845 30.868 82.8245 32.428C83.6885 33.964 84.8645 35.188 86.3525 36.1C87.8405 36.988 89.5565 37.432 91.5005 37.432ZM91.1765 20.512C92.5445 20.512 93.6965 20.944 94.6325 21.808C95.5685 22.672 96.0725 23.8 96.1445 25.192H85.8845C86.1245 23.704 86.7365 22.552 87.7205 21.736C88.7045 20.92 89.8565 20.512 91.1765 20.512ZM113.579 37.432C115.571 37.432 117.299 36.976 118.763 36.064C120.251 35.152 121.295 34 121.895 32.608L118.583 30.988C118.103 31.804 117.443 32.488 116.603 33.04C115.787 33.568 114.791 33.832 113.615 33.832C112.079 33.832 110.771 33.352 109.691 32.392C108.611 31.408 108.011 30.088 107.891 28.432H122.363C122.435 28.144 122.483 27.832 122.507 27.496C122.531 27.16 122.543 26.836 122.543 26.524C122.543 24.844 122.171 23.296 121.427 21.88C120.707 20.44 119.651 19.288 118.259 18.424C116.891 17.536 115.223 17.092 113.255 17.092C111.431 17.092 109.787 17.536 108.323 18.424C106.883 19.288 105.743 20.488 104.903 22.024C104.063 23.536 103.643 25.264 103.643 27.208C103.643 29.128 104.063 30.868 104.903 32.428C105.767 33.964 106.943 35.188 108.431 36.1C109.919 36.988 111.635 37.432 113.579 37.432ZM113.255 20.512C114.623 20.512 115.775 20.944 116.711 21.808C117.647 22.672 118.151 23.8 118.223 25.192H107.963C108.203 23.704 108.815 22.552 109.799 21.736C110.783 20.92 111.935 20.512 113.255 20.512ZM126.513 37H130.581V25.516C130.581 24.076 130.989 22.948 131.805 22.132C132.621 21.292 133.653 20.872 134.901 20.872C136.173 20.872 137.205 21.292 137.997 22.132C138.813 22.948 139.221 24.076 139.221 25.516V37H143.253V24.4C143.253 22.96 142.929 21.7 142.281 20.62C141.657 19.516 140.793 18.652 139.689 18.028C138.585 17.404 137.325 17.092 135.909 17.092C134.709 17.092 133.629 17.332 132.669 17.812C131.709 18.292 130.953 18.988 130.401 19.9V17.524H126.513V37Z" fill="#001858"/>
<path d="M148.214 37H150.59V34.48H148.214V37ZM154.099 37H159.751C161.251 37 162.421 36.64 163.261 35.92C164.113 35.188 164.539 34.18 164.539 32.896C164.539 32.284 164.419 31.708 164.179 31.168C163.939 30.628 163.519 30.166 162.919 29.782C163.291 29.446 163.561 29.074 163.729 28.666C163.909 28.258 163.999 27.826 163.999 27.37C163.999 26.194 163.621 25.27 162.865 24.598C162.109 23.926 161.071 23.59 159.751 23.59H154.099V37ZM156.547 28.792V25.678H159.877C160.381 25.678 160.783 25.816 161.083 26.092C161.383 26.368 161.533 26.74 161.533 27.208C161.533 27.676 161.383 28.06 161.083 28.36C160.783 28.648 160.381 28.792 159.877 28.792H156.547ZM156.547 34.84V30.934H160.003C160.639 30.934 161.143 31.114 161.515 31.474C161.899 31.822 162.091 32.296 162.091 32.896C162.091 33.484 161.899 33.958 161.515 34.318C161.143 34.666 160.639 34.84 160.003 34.84H156.547ZM166.346 37H168.704V23.374H166.346V37ZM175.669 37.216C176.617 37.216 177.481 37 178.261 36.568C179.041 36.124 179.665 35.518 180.133 34.75C180.601 33.97 180.835 33.088 180.835 32.104C180.835 31.12 180.601 30.244 180.133 29.476C179.677 28.708 179.059 28.102 178.279 27.658C177.499 27.214 176.629 26.992 175.669 26.992C174.697 26.992 173.821 27.214 173.041 27.658C172.261 28.102 171.637 28.708 171.169 29.476C170.713 30.244 170.485 31.12 170.485 32.104C170.485 33.088 170.713 33.964 171.169 34.732C171.637 35.5 172.261 36.106 173.041 36.55C173.833 36.994 174.709 37.216 175.669 37.216ZM175.669 35.056C175.141 35.056 174.667 34.93 174.247 34.678C173.839 34.426 173.515 34.078 173.275 33.634C173.047 33.178 172.933 32.668 172.933 32.104C172.933 31.54 173.047 31.036 173.275 30.592C173.515 30.148 173.839 29.8 174.247 29.548C174.667 29.284 175.141 29.152 175.669 29.152C176.197 29.152 176.659 29.284 177.055 29.548C177.463 29.8 177.781 30.148 178.009 30.592C178.249 31.036 178.369 31.54 178.369 32.104C178.369 32.668 178.249 33.178 178.009 33.634C177.781 34.078 177.463 34.426 177.055 34.678C176.659 34.93 176.197 35.056 175.669 35.056ZM187.375 40.96C188.311 40.96 189.139 40.768 189.859 40.384C190.579 40 191.143 39.472 191.551 38.8C191.959 38.128 192.163 37.366 192.163 36.514V27.208H189.931V28.342C189.187 27.442 188.185 26.992 186.925 26.992C186.025 26.992 185.221 27.202 184.513 27.622C183.805 28.03 183.247 28.594 182.839 29.314C182.431 30.034 182.227 30.856 182.227 31.78C182.227 32.692 182.431 33.514 182.839 34.246C183.247 34.978 183.811 35.554 184.531 35.974C185.251 36.394 186.067 36.604 186.979 36.604C188.167 36.604 189.109 36.22 189.805 35.452V36.514C189.805 37.234 189.577 37.792 189.121 38.188C188.665 38.596 188.083 38.8 187.375 38.8C186.751 38.8 186.223 38.656 185.791 38.368C185.371 38.092 185.089 37.726 184.945 37.27L182.749 38.098C183.061 38.962 183.631 39.652 184.459 40.168C185.299 40.696 186.271 40.96 187.375 40.96ZM187.267 34.426C186.511 34.426 185.887 34.18 185.395 33.688C184.915 33.184 184.675 32.554 184.675 31.798C184.675 31.294 184.783 30.844 184.999 30.448C185.227 30.04 185.539 29.722 185.935 29.494C186.331 29.266 186.775 29.152 187.267 29.152C188.011 29.152 188.617 29.404 189.085 29.908C189.565 30.4 189.805 31.03 189.805 31.798C189.805 32.566 189.565 33.196 189.085 33.688C188.617 34.18 188.011 34.426 187.267 34.426Z" fill="#6246EA"/>
</svg>

